# xmcd CD database file
#
# Track frame offsets:
#	150
#	43324
#	93917
#	169473
#	196395
#
# Disc length: 3558 seconds
#
# Revision: 5
# Processed by: cddbd v1.5PL3 Copyright (c) Steve Scherf et al.
# Submitted via: CDex 1.51
#
DISCID=420de405
DTITLE=Mick Taylor - 100 Club Show
DYEAR=1900
DGENRE=Blues
TTITLE0=Secret Affair
TTITLE1=Twisted Sister
TTITLE2=Late At Night
TTITLE3=Losing My Faith
TTITLE4=Blind Willie Mc Tell incl. All Along Watchtower
EXTD=
EXTT0=
EXTT1=
EXTT2=
EXTT3=
EXTT4=
PLAYORDER=
